<?xml version="1.0" standalone="no"?>
<!DOCTYPE svg PUBLIC "-//W3C//DTD SVG 20010904//EN"
 "http://www.w3.org/TR/2001/REC-SVG-20010904/DTD/svg10.dtd">
<svg version="1.0" xmlns="http://www.w3.org/2000/svg"
 width="920.000000pt" height="920.000000pt" viewBox="0 0 920.000000 920.000000"
 preserveAspectRatio="xMidYMid meet">
<metadata>
Created by potrace 1.14, written by Peter Selinger 2001-2017
</metadata>
<g transform="translate(0.000000,920.000000) scale(0.100000,-0.100000)"
fill="#000000" stroke="none">
<path d="M2857 7749 c-25 -52 -480 -1005 -1012 -2119 -532 -1114 -983 -2058
-1001 -2097 l-33 -73 672 -555 672 -556 12 30 c7 17 261 739 563 1603 303 865
552 1579 555 1586 3 8 285 -319 656 -760 358 -425 654 -773 659 -773 5 0 301
348 659 773 585 696 652 771 659 750 5 -13 255 -736 557 -1608 301 -872 550
-1588 554 -1592 8 -9 1347 1098 1344 1111 -4 16 -2064 4355 -2072 4364 -4 4
-386 -426 -850 -955 -464 -530 -847 -963 -851 -963 -4 0 -380 425 -835 945
-455 520 -835 954 -846 964 -18 19 -19 18 -62 -75z"/>
</g>
</svg>
