<?xml version="1.0" standalone="no"?>
<!DOCTYPE svg PUBLIC "-//W3C//DTD SVG 20010904//EN"
 "http://www.w3.org/TR/2001/REC-SVG-20010904/DTD/svg10.dtd">
<svg version="1.0" xmlns="http://www.w3.org/2000/svg"
 width="260.000000pt" height="260.000000pt" viewBox="0 0 260.000000 260.000000"
 preserveAspectRatio="xMidYMid meet">
<metadata>
Created by potrace 1.14, written by Peter Selinger 2001-2017
</metadata>
<g transform="translate(0.000000,260.000000) scale(0.100000,-0.100000)"
fill="#000000" stroke="none">
<path d="M770 1956 c-82 -18 -162 -49 -222 -88 -104 -66 -191 -194 -217 -318
-9 -42 -25 -528 -31 -907 l0 -23 224 0 224 0 3 389 c4 375 5 391 25 418 61 83
197 83 258 0 20 -27 21 -42 24 -418 l3 -389 234 0 235 0 0 378 c0 339 2 380
18 411 37 75 131 102 210 62 75 -38 75 -37 80 -469 l5 -382 229 0 229 0 -5
123 c-3 67 -8 261 -11 432 -7 340 -14 393 -66 497 -45 90 -145 186 -239 231
-187 89 -441 87 -623 -5 l-60 -30 -46 25 c-123 66 -334 94 -481 63z"/>
</g>
</svg>
